<svg xmlns="http://www.w3.org/2000/svg" viewBox="0 0 1309.33 1309.33"><defs><style>.cls-1{font-size:113px;font-family:Wulkandisplay-Medium, Wulkan display;font-weight:500;}</style></defs><g id="Layer_2" data-name="Layer 2"><g id="Layer_1-2" data-name="Layer 1"><text class="cls-1" transform="translate(707.35 98.56) rotate(8.88)">C</text><text class="cls-1" transform="translate(774.38 109.13) rotate(15.58)">L</text><text class="cls-1" transform="matrix(0.92, 0.39, -0.39, 0.92, 835.18, 125.65)">O</text><text class="cls-1" transform="matrix(0.86, 0.51, -0.51, 0.86, 904, 154.5)">U</text><text class="cls-1" transform="translate(967.15 191.4) rotate(37.88)">D</text><text class="cls-1" transform="matrix(0.7, 0.71, -0.71, 0.7, 1023.68, 235.04)">N</text><text class="cls-1" transform="translate(1076.16 289.31) rotate(50.91)">I</text><text class="cls-1" transform="translate(1099.39 316.27) rotate(56.59)">N</text><text class="cls-1" transform="matrix(0.44, 0.9, -0.9, 0.44, 1140.54, 379)">E</text><text class="cls-1" transform="matrix(0.36, 0.93, -0.93, 0.36, 1169.39, 439.65)"> </text><text class="cls-1" transform="matrix(0.3, 0.95, -0.95, 0.3, 1179.77, 465.89)">•</text><text class="cls-1" transform="translate(1191.6 503.45) rotate(75.76)"> </text><text class="cls-1" transform="translate(1199.3 530.14) rotate(80.73)">C</text><text class="cls-1" transform="translate(1210.12 597.16) rotate(87.37)">L</text><text class="cls-1" transform="translate(1213.44 660.12) rotate(94.42)">O</text><text class="cls-1" transform="translate(1207.75 734.5) rotate(101.98)">U</text><text class="cls-1" transform="matrix(-0.33, 0.94, -0.94, -0.33, 1192.67, 806.09)">D</text><text class="cls-1" transform="translate(1169.02 873.46) rotate(117)">N</text><text class="cls-1" transform="matrix(-0.54, 0.84, -0.84, -0.54, 1133.91, 940.25)">I</text><text class="cls-1" transform="translate(1115.55 970.74) rotate(128.39)">N</text><text class="cls-1" transform="matrix(-0.71, 0.7, -0.7, -0.71, 1068.79, 1029.43)">E</text><text class="cls-1" transform="translate(1020.22 1075.84) rotate(140.46)"> </text><text class="cls-1" transform="translate(998.56 1093.94) rotate(143.92)">•</text><text class="cls-1" transform="translate(966.61 1117.01) rotate(147.39)"> </text><text class="cls-1" transform="translate(943.72 1132.72) rotate(152.33)">C</text><text class="cls-1" transform="translate(883.57 1164.14) rotate(159.03)">L</text><text class="cls-1" transform="translate(824.9 1187.09) rotate(166.24)">O</text><text class="cls-1" transform="translate(752.44 1204.88) rotate(173.81)">U</text><text class="cls-1" transform="translate(679.72 1212.85) rotate(-178.75)">D</text><text class="cls-1" transform="translate(608.28 1211.57) rotate(-171.4)">N</text><text class="cls-1" transform="translate(533.8 1199.33) rotate(-165.67)">I</text><text class="cls-1" transform="translate(499.1 1191.54) rotate(-159.92)">N</text><text class="cls-1" transform="matrix(-0.89, -0.46, 0.46, -0.89, 428.71, 1165.6)">E</text><text class="cls-1" transform="translate(369.45 1133.99) rotate(-147.74)"> </text><text class="cls-1" transform="translate(345.49 1119.07) rotate(-144.27)">•</text><text class="cls-1" transform="matrix(-0.78, -0.63, 0.63, -0.78, 313.62, 1095.94)"> </text><text class="cls-1" transform="matrix(-0.72, -0.7, 0.7, -0.72, 291.52, 1079.07)">C</text><text class="cls-1" transform="matrix(-0.63, -0.77, 0.77, -0.63, 242.84, 1031.76)">L</text><text class="cls-1" transform="matrix(-0.53, -0.85, 0.85, -0.53, 202.62, 983.24)">O</text><text class="cls-1" transform="translate(162.87 920.1) rotate(-114.57)">U</text><text class="cls-1" transform="matrix(-0.29, -0.96, 0.96, -0.29, 132.35, 853.61)">D</text><text class="cls-1" transform="translate(111.24 785.43) rotate(-99.55)">N</text><text class="cls-1" transform="matrix(-0.07, -1, 1, -0.07, 99.67, 710.84)">I</text><text class="cls-1" transform="translate(96.26 675.4) rotate(-88.25)">N</text><text class="cls-1" transform="translate(98.74 600.38) rotate(-81.02)">E</text><text class="cls-1" transform="translate(110.03 534.2) rotate(-76.12)"> </text><text class="cls-1" transform="translate(116.63 506.76) rotate(-72.62)">•</text><text class="cls-1" transform="translate(128.56 469.22) rotate(-69.12)"> </text><text class="cls-1" transform="matrix(0.44, -0.9, 0.9, 0.44, 137.61, 442.96)">C</text><text class="cls-1" transform="translate(167.3 381.94) rotate(-57.48)">L</text><text class="cls-1" transform="translate(200.83 328.57) rotate(-50.35)">O</text><text class="cls-1" transform="translate(248.41 271.07) rotate(-42.84)">U</text><text class="cls-1" transform="translate(302 221.25) rotate(-35.34)">D</text><text class="cls-1" transform="matrix(0.88, -0.47, 0.47, 0.88, 360.07, 179.74)">N</text><text class="cls-1" transform="translate(427.19 145.21) rotate(-22.22)">I</text><text class="cls-1" transform="translate(459.72 130.8) rotate(-16.47)">N</text><text class="cls-1" transform="translate(531.71 109.72) rotate(-9.17)">E</text><text class="cls-1" transform="translate(598.13 99.82) rotate(-4.31)"> </text><text class="cls-1" transform="matrix(1, -0.02, 0.02, 1, 626.34, 97.55)">•</text><text class="cls-1" transform="matrix(1, 0.04, -0.04, 1, 665.71, 97.1)"> </text></g></g></svg>