<svg xmlns="http://www.w3.org/2000/svg" width="723.348" height="488.156" viewBox="0 0 723.348 488.156"><defs><style>.a{fill:#e6dcda;}.b{fill:none;}.c{fill:#260c07;}.d,.e,.f{stroke:none;}.e{fill:#e6dcda;}.f{fill:#260c07;}</style></defs><g transform="translate(-1333.904 -717.241)"><g transform="translate(1475.893 622.056)"><g transform="translate(143.953 60.147) rotate(10)"><g transform="translate(0)"><path class="a" d="M12.111,31.574a17.606,17.606,0,0,1-9.2-7.534A16.737,16.737,0,0,1,.13,12.64a11.453,11.453,0,0,1,5.177-8.8A10.785,10.785,0,0,1,9.987,2.349,3.115,3.115,0,0,0,12.709,0l7.974,8.677-.536.342Q11.238.768,5.556,4.384a7.771,7.771,0,0,0-3.525,6.434c-.206,2.9.773,5.994,2.944,9.383a20.182,20.182,0,0,0,7.419,6.866,9.858,9.858,0,0,0,10.089-.428c2.853-1.827,4.349-5.3,3.127-9.8l.425-.121a13.417,13.417,0,0,1,.694,7.755,9,9,0,0,1-4.054,5.768A11.782,11.782,0,0,1,12.111,31.574Z" transform="translate(106.418 33.952)"/><path class="a" d="M10.109,29.6a17.41,17.41,0,0,1-8.2-8.634A17.282,17.282,0,0,1,.421,9.393a11.315,11.315,0,0,1,6.432-8.1,11.909,11.909,0,0,1,10.7-.045,16.837,16.837,0,0,1,8.13,8.478,17.765,17.765,0,0,1,1.56,11.726,10.955,10.955,0,0,1-6.2,8.084A12.1,12.1,0,0,1,10.109,29.6ZM19.177,7.743a18.53,18.53,0,0,0-6.544-4.824,7.707,7.707,0,0,0-6.646-.185,6.311,6.311,0,0,0-3.774,5.3,14.661,14.661,0,0,0,1.549,7.936,29.612,29.612,0,0,0,4.787,7.156,20.1,20.1,0,0,0,6.637,4.826,7.943,7.943,0,0,0,6.724.15,6.01,6.01,0,0,0,3.6-5.265,14.944,14.944,0,0,0-1.622-7.993A30.136,30.136,0,0,0,19.177,7.743Z" transform="translate(130.638 22.294)"/><path class="a" d="M17.875,2.413,25.42,0l.156.484c-1.939.753-2.735,2.3-1.782,5.417l5.852,18.856a8.822,8.822,0,0,0,2.537,4.036,10.147,10.147,0,0,0-2.463,3.145L5.593,10.877l6.535,19.881c1.009,3.013,2.968,3.855,5.077,3.357l.156.486L9.089,37.247l-.156-.486c2.047-.832,3.2-2.666,2.268-5.707L5.336,12.16C4.408,9.121,2.493,8,.154,8.614L0,8.13,6.334,6.1l23.092,20.19L22.987,6.16c-.93-2.772-2.566-3.85-4.957-3.263Z" transform="translate(154.798 8.283)"/><path class="a" d="M6.043,29.028A17.616,17.616,0,0,1,.349,18.585,16.74,16.74,0,0,1,2.064,6.977,11.454,11.454,0,0,1,10.173.769a10.826,10.826,0,0,1,4.9.381A3.118,3.118,0,0,0,18.475,0L22.6,11.036l-.625.118Q16.823.155,10.2,1.368A7.773,7.773,0,0,0,4.512,6c-1.281,2.61-1.539,5.845-.8,9.8A20.219,20.219,0,0,0,8,24.96a9.863,9.863,0,0,0,9.51,3.4c3.331-.622,6.026-3.277,6.585-7.906l.44.047a13.408,13.408,0,0,1-2.275,7.448,9,9,0,0,1-5.924,3.818A11.786,11.786,0,0,1,6.043,29.028Z" transform="translate(187.065 3.623)"/><path class="a" d="M24.411,23l-2.042,9.211a13.159,13.159,0,0,0-5.419-.46l-15,.959-.036-.549c1.387-.217,2.38-1.3,2.247-3.369L2.694,5.926C2.566,3.9,1.691,2.85.033,2.785L0,2.278l14.118-.9C16.78,1.206,18.661.746,19.716,0l3.018,8.039-.634.042C20.974,5.734,20.222,4.593,18.5,3.474S14.285,2,10.523,2.242L6.55,2.5l.767,12,4.776-.306c3.339-.213,4.537-1.393,4.51-3.811l.549-.035.492,7.693-.549.035c-.374-2.523-1.622-3.461-4.961-3.248l-4.777.306,1,15.638a13.164,13.164,0,0,0,5.3.554A11.489,11.489,0,0,0,20.267,29.2a11.617,11.617,0,0,0,3.51-6.165Z" transform="translate(213.919)"/><path class="a" d="M0,30.483l.015-.552c1.655-.08,2.492-1.2,2.551-3.36L3.2,3.921C3.266,1.425,2.354.678.834.508L.849,0,9.78.248,9.767.756c-1.57.085-2.48.779-2.549,3.277L6.587,26.725c-.057,2.118.714,3.281,2.361,3.454l-.015.552Z" transform="translate(241.818 1.059)"/><path class="a" d="M19.316,2.421l8.2,1.03-.064.505c-1.9-.2-3.427.764-4.547,2.887-2.669,5.258-4.363,8.547-5,9.918-3.121,6.481-4.879,10.275-5.233,11.384a8.008,8.008,0,0,0-.363,1.532,9.381,9.381,0,0,0-.076,1.956,11.065,11.065,0,0,0-3.694,1.2L3.846,8.289,3.354,5.752a13.218,13.218,0,0,0-.5-2.156A7.143,7.143,0,0,0,2.08,1.961,3.749,3.749,0,0,0,0,.5L.064,0l9.962,1.253-.063.5c-1.077.079-2.086.292-2.445,1.785A11.078,11.078,0,0,0,7.793,7.8L11.824,28.38c.363-1.194,2.142-5.154,5.331-11.841l.758-1.614.8-1.564c.393-.762,1.042-2.174,1.336-2.821.948-2.1,1.679-3.846,1.659-4.7.153-1.561-.661-2.56-2.452-2.912Z" transform="translate(256.962 1.263)"/><path class="a" d="M24.371,27.247l-4.788,8.135a13.089,13.089,0,0,0-5.013-2.11L0,29.551l.136-.534c1.386.222,2.664-.5,3.177-2.511L8.983,4.3c.5-1.97,0-3.236-1.563-3.808L7.546,0,21.253,3.5c2.587.659,4.517.8,5.752.417l.389,8.581-.616-.156c-.348-2.581-.709-3.9-2.008-5.5s-3.551-2.7-7.2-3.632l-3.858-.986L10.732,13.885l4.638,1.186c3.242.826,4.747.074,5.467-2.233l.532.136-1.908,7.469-.533-.136c.424-2.516-.475-3.792-3.717-4.62L10.575,14.5,6.7,29.688a13.168,13.168,0,0,0,4.87,2.16,11.486,11.486,0,0,0,6.945.026,11.638,11.638,0,0,0,5.243-4.782Z" transform="translate(281.773 5.826)"/><path class="a" d="M.323,2.394A3.978,3.978,0,0,1,5.56.324,3.982,3.982,0,1,1,.323,2.394Z" transform="translate(322.479 32.237)"/><path class="a" d="M.129,19.886A17.594,17.594,0,0,1,2.861,8.313,16.727,16.727,0,0,1,11.887.819a11.447,11.447,0,0,1,10.177.792,10.789,10.789,0,0,1,3.39,3.552,3.114,3.114,0,0,0,3.3,1.414l-4.3,10.968-.543-.328Q27.425,5.593,21.684,2.073a7.771,7.771,0,0,0-7.326-.346C11.663,2.814,9.309,5.05,7.218,8.486A20.185,20.185,0,0,0,4.3,18.165,9.851,9.851,0,0,0,9.111,27.04C12,28.8,15.781,28.624,19.288,25.552l.3.328A13.383,13.383,0,0,1,12.919,29.9a8.977,8.977,0,0,1-6.957-1.112A11.77,11.77,0,0,1,.129,19.886Z" transform="translate(344.243 34.492)"/><path class="a" d="M18.543,33.46c-.321,3.2.1,4.513,1.272,5.491l-.316.4-2.956-2.34c-1.363-1.079-1.953-2.79-1.714-5.139l1.287-13.3-2.192-1.735L7.64,24.777C6.193,26.6,6.307,28.1,7.292,29.039l-.316.4L0,23.918l.316-.4c1.142.741,2.655.534,4.1-1.292L18.326,4.655c1.368-1.728,1.446-3.124.263-4.224L18.93,0,27.4,6.7a14.045,14.045,0,0,1,5.091,6.947,7.235,7.235,0,0,1-1.368,6.915,6.737,6.737,0,0,1-5.708,2.776,11.152,11.152,0,0,1-6.611-2.64l-1.393-1.1-.212.266L19.5,22.222ZM23.679,4.514l-9.2,11.626c1.894,1.77,3.11,2.9,3.676,3.342,3.587,2.839,7.05,2.015,9.785-1.44a7.544,7.544,0,0,0,1.688-5.958A9.063,9.063,0,0,0,25.937,6.3Z" transform="translate(361.318 45.696)"/><path class="a" d="M22.081,32.02l-8.289,4.513a13.125,13.125,0,0,0-3.213-4.39L0,21.458l.392-.387c1.073.9,2.54.941,4.015-.521L20.692,4.428c1.445-1.43,1.661-2.776.619-4.07L21.673,0l9.954,10.055c1.876,1.9,3.458,3.012,4.715,3.318L32.261,20.93l-.448-.451c1.03-2.392,1.4-3.708,1.107-5.744s-1.656-4.144-4.308-6.821l-2.8-2.829-8.549,8.461,3.368,3.4c2.354,2.377,4.032,2.505,5.836.9l.387.39-5.478,5.425-.387-.392c1.657-1.938,1.545-3.5-.809-5.876l-3.367-3.4L5.673,25.021a13.143,13.143,0,0,0,3.063,4.358,11.461,11.461,0,0,0,5.942,3.593,11.61,11.61,0,0,0,6.956-1.4Z" transform="translate(381.573 64.461)"/><path class="a" d="M20.113,22.4l-.7.968a8.741,8.741,0,0,1-.64.974l-.59.829a16.845,16.845,0,0,0-.876,1.64,5.182,5.182,0,0,0-.437,1.514,3.235,3.235,0,0,0,.463,2.263l-.436.337-6.107-7.915.437-.337c.788.676,1.7,1.307,2.962.443a10.744,10.744,0,0,0,2.829-3.2l2.242-3.337L12.948,8.395C8.865,9.832,6.5,10.855,5.786,11.458a2.518,2.518,0,0,0-.3,3.765l-.436.337L0,9.02l.437-.336c1.171,1.451,2.644,1.971,5.278,1.224,5.038-1.586,8.538-2.734,10.528-3.415l3.23-1.153,2.784-.971,2.124-.782A26.682,26.682,0,0,0,27.5,2.359a6.421,6.421,0,0,0,1.852-1A8.568,8.568,0,0,0,30.763,0a14.23,14.23,0,0,0,3.455,1.774ZM13.581,8.174l6.054,7.848,9.137-13.47c-1.262.654-5.292,2.157-12.155,4.564Z" transform="translate(397.571 92.82)"/><path class="a" d="M27.579,24.644l-.309-.507A13.136,13.136,0,0,0,30.8,19.1c.793-1.873.334-3.926-1.166-6.385l-.663-1.085L6.8,25.16c-1.991,1.215-2.248,2.663-1.673,3.85l-.47.287L0,21.665.434,21.4c.793,1.054,2.234,1.466,4.224.251L26.833,8.124,26.147,7c-1.5-2.46-3.153-3.785-5.131-4.017s-3.472.083-6.083.93l-.33-.542L23.713,0a12.484,12.484,0,0,0,1.868,5.016l5.56,9.115a11.477,11.477,0,0,0,3.605,3.955Z" transform="translate(417.066 106.7)"/><path class="a" d="M17.073,30.193,7.735,31.563a13.117,13.117,0,0,0-1.5-5.23L0,12.649l.5-.23c.694,1.221,2.059,1.762,3.948.9l20.856-9.5c1.85-.844,2.519-2.033,1.988-3.607L27.756,0l5.868,12.875c1.106,2.43,2.206,4.022,3.278,4.744L30.46,23.3l-.263-.578c1.793-1.888,2.591-3,3.024-5.01s-.122-4.46-1.687-7.889L29.884,6.2,18.936,11.189l1.985,4.357c1.387,3.045,2.917,3.744,5.166,2.858l.228.5L19.3,22.1l-.227-.5c2.224-1.246,2.658-2.749,1.269-5.794l-1.985-4.355-14.263,6.5A13.143,13.143,0,0,0,5.463,23.1,11.481,11.481,0,0,0,9.8,28.529a11.642,11.642,0,0,0,7.013,1.088Z" transform="translate(426.566 131.651)"/><path class="a" d="M2.918.152a3.978,3.978,0,0,1,4.9,2.779,3.983,3.983,0,1,1-7.655,2.2A4,4,0,0,1,2.918.152Z" transform="translate(449.965 175.617)"/><path class="a" d="M3.4,5.313A17.6,17.6,0,0,1,14.129.181a16.728,16.728,0,0,1,11.5,2.328A11.445,11.445,0,0,1,31.4,10.933a10.8,10.8,0,0,1-.64,4.868,3.116,3.116,0,0,0,.97,3.462L20.489,22.8l-.083-.631c7.5-3.041,10.98-6.788,10.393-11.24A7.771,7.771,0,0,0,26.472,5c-2.537-1.417-5.755-1.847-9.744-1.321a20.182,20.182,0,0,0-9.367,3.8,9.855,9.855,0,0,0-3.9,9.314c.442,3.36,2.953,6.19,7.544,6.994l-.071.436A13.38,13.38,0,0,1,3.623,21.56a8.984,8.984,0,0,1-3.5-6.116A11.782,11.782,0,0,1,3.4,5.313Z" transform="translate(447.631 199.66)"/><path class="a" d="M4.457,3.916A17.4,17.4,0,0,1,15.705,0,17.272,17.272,0,0,1,26.862,3.422a11.318,11.318,0,0,1,4.728,9.2A11.91,11.91,0,0,1,27.215,22.4a16.849,16.849,0,0,1-11.078,3.911A17.76,17.76,0,0,1,4.81,22.891,10.961,10.961,0,0,1,0,13.9,12.1,12.1,0,0,1,4.457,3.916Zm16.17,17.276a18.539,18.539,0,0,0,7.1-3.971,7.713,7.713,0,0,0,2.911-5.98,6.308,6.308,0,0,0-3.271-5.623A14.636,14.636,0,0,0,19.5,3.754,29.636,29.636,0,0,0,11,5.164,20.087,20.087,0,0,0,3.866,9.221,7.934,7.934,0,0,0,.957,15.284,6.015,6.015,0,0,0,4.265,20.74a14.964,14.964,0,0,0,7.954,1.819A30.012,30.012,0,0,0,20.628,21.192Z" transform="translate(449.353 226.811)"/><path class="a" d="M31.752,22.644,30.76,30.5l-.5-.063c.135-2.074-.93-3.446-4.16-3.9L6.54,23.9a8.821,8.821,0,0,0-4.728.6A10.165,10.165,0,0,0,0,20.936L29.258,7.944,8.482,5.49C5.325,5.133,3.737,6.555,3.3,8.676l-.5-.064L3.883,0l.5.063C4.28,2.269,5.458,4.083,8.6,4.523L28.2,7.171c3.147.44,4.971-.823,5.4-3.2l.5.063-.834,6.594L5.239,23.049,26.2,25.7c2.9.325,4.57-.7,5.045-3.118Z" transform="translate(446.009 254.537)"/><path class="a" d="M31.246,26.212,29.2,33.867l-.49-.132c.413-2.039-.457-3.543-3.6-4.427L6.083,24.048A8.808,8.808,0,0,0,1.316,24,10.158,10.158,0,0,0,0,20.228l30.758-8.923L10.5,6.063c-3.082-.781-4.847.415-5.569,2.458L4.437,8.39,6.681,0l.49.13C6.765,2.3,7.69,4.26,10.749,5.122l19.069,5.272c3.059.862,5.038-.142,5.783-2.443l.492.132-1.717,6.425L4.908,23.031l20.423,5.46c2.835.714,4.626-.079,5.423-2.408Z" transform="translate(439.547 282.563)"/><path class="a" d="M7.393,24.456,0,18.588a13.138,13.138,0,0,0,2.787-4.673L8.49,0,9,.209c-.413,1.342.126,2.708,2.047,3.495l21.205,8.691c1.88.771,3.206.445,3.988-1.02l.471.192L31.345,24.66c-1.014,2.468-1.422,4.36-1.213,5.637l-8.552-.8.241-.587c2.6.014,3.959-.163,5.722-1.225s3.166-3.144,4.6-6.632l1.511-3.685L22.517,12.8,20.7,17.228c-1.269,3.1-.732,4.691,1.454,5.726l-.209.51-7.134-2.926.21-.51c2.431.768,3.821.056,5.091-3.041l1.815-4.428L7.426,6.615a13.163,13.163,0,0,0-2.815,4.522,11.475,11.475,0,0,0-.986,6.876,11.624,11.624,0,0,0,4.009,5.854Z" transform="translate(429.99 310.394)"/><path class="a" d="M9.9.213A17.612,17.612,0,0,1,21.569,2.528a16.741,16.741,0,0,1,7.82,8.752,11.451,11.451,0,0,1-.424,10.2A10.785,10.785,0,0,1,25.537,25a3.113,3.113,0,0,0-1.295,3.353l-11.121-3.9.31-.554c7.83,2.056,12.864,1.136,15.057-2.782a7.767,7.767,0,0,0,.08-7.336c-1.183-2.655-3.5-4.926-7.015-6.892a20.175,20.175,0,0,0-9.779-2.566,9.858,9.858,0,0,0-8.7,5.128c-1.658,2.956-1.342,6.726,1.856,10.119l-.318.307A13.406,13.406,0,0,1,.349,13.364a8.981,8.981,0,0,1,.861-7A11.785,11.785,0,0,1,9.9.213Z" transform="translate(420.852 338.065)"/><path class="a" d="M13.044,26.616l.349-.478a13.136,13.136,0,0,0,6,1.34c2.033.018,3.756-1.189,5.455-3.513l.75-1.026L4.638,7.617C2.758,6.24,1.322,6.554.445,7.54L0,7.215,5.275,0l.41.3c-.673,1.135-.5,2.623,1.378,4L28.02,19.624l.775-1.059c1.7-2.325,2.293-4.357,1.755-6.274s-1.4-3.177-3.181-5.265l.375-.513,6.591,7.13a12.468,12.468,0,0,0-3.92,3.638l-6.3,8.615a11.48,11.48,0,0,0-2.28,4.839Z" transform="translate(406.98 361.038)"/><path class="a" d="M6.832,1.167A3.977,3.977,0,0,1,6.818,6.8a3.982,3.982,0,1,1,.014-5.632Z" transform="translate(394.752 392.955)"/><path class="a" d="M14.154.409a17.61,17.61,0,0,1,9.752,6.809,16.74,16.74,0,0,1,3.64,11.157,11.448,11.448,0,0,1-4.49,9.169A10.808,10.808,0,0,1,18.5,29.387a3.116,3.116,0,0,0-2.534,2.548L7.356,23.894l.507-.383q9.515,7.548,14.9,3.508a7.766,7.766,0,0,0,3.024-6.684c-.017-2.906-1.228-5.918-3.65-9.131a20.194,20.194,0,0,0-7.923-6.281A9.86,9.86,0,0,0,4.19,6.12C1.485,8.163.258,11.74,1.821,16.132l-.416.155A13.411,13.411,0,0,1,.122,8.6a8.983,8.983,0,0,1,3.6-6.057A11.781,11.781,0,0,1,14.154.409Z" transform="translate(361.121 406.443)"/><path class="a" d="M16.634.9a17.39,17.39,0,0,1,8.841,7.979A17.281,17.281,0,0,1,27.846,20.3a11.319,11.319,0,0,1-5.793,8.57,11.908,11.908,0,0,1-10.671.868,16.86,16.86,0,0,1-8.756-7.83A17.762,17.762,0,0,1,.172,10.332,10.959,10.959,0,0,1,5.737,1.8,12.093,12.093,0,0,1,16.634.9ZM9.27,23.382a18.561,18.561,0,0,0,6.894,4.308,7.708,7.708,0,0,0,6.643-.325,6.309,6.309,0,0,0,3.355-5.57A14.63,14.63,0,0,0,24.009,14a29.55,29.55,0,0,0-5.321-6.765A20.074,20.074,0,0,0,11.7,2.93,7.933,7.933,0,0,0,4.984,3.3,6.01,6.01,0,0,0,1.8,8.821a14.933,14.933,0,0,0,2.231,7.847A30.085,30.085,0,0,0,9.27,23.382Z" transform="translate(337.547 421.232)"/><path class="a" d="M16.3,35.41,8.959,38.4l-.191-.47c1.874-.9,2.549-2.5,1.359-5.54L2.84,14.037A8.832,8.832,0,0,0,0,10.207,10.184,10.184,0,0,0,2.215,6.882L27.893,26.025,19.845,6.7c-1.237-2.927-3.256-3.616-5.321-2.956l-.192-.472L22.378,0l.191.472c-1.977.988-2.98,2.906-1.82,5.865l7.3,18.39c1.159,2.959,3.156,3.93,5.44,3.138l.191.47-6.16,2.508L2.941,12.487l7.971,19.582c1.141,2.693,2.855,3.641,5.193,2.873Z" transform="translate(309.196 430.262)"/><path class="a" d="M17.8,2.406a17.6,17.6,0,0,1,6.482,9.974,16.739,16.739,0,0,1-.817,11.709A11.456,11.456,0,0,1,15.863,30.9a10.8,10.8,0,0,1-4.912,0,3.115,3.115,0,0,0-3.307,1.41L2.682,21.62l.614-.163q5.984,10.57,12.5,8.85a7.772,7.772,0,0,0,5.313-5.06c1.076-2.7,1.085-5.947.045-9.835a20.18,20.18,0,0,0-4.983-8.8A9.859,9.859,0,0,0,6.423,3.956C3.149,4.831.668,7.688.466,12.346l-.442-.014a13.4,13.4,0,0,1,1.694-7.6A9,9,0,0,1,7.332.468,11.778,11.778,0,0,1,17.8,2.406Z" transform="translate(285.625 442.947)"/><path class="a" d="M0,11.393,1.334,2.052a13.138,13.138,0,0,0,5.44.047L21.664,0l.077.544c-1.366.321-2.274,1.477-1.983,3.531l3.2,22.691c.283,2.013,1.234,2.992,2.894,2.93l.071.5L11.91,32.173c-2.643.372-4.484.973-5.479,1.8L2.809,26.184l.629-.089c1.3,2.254,2.139,3.334,3.945,4.319s4.312,1.146,8.044.622l3.942-.557L17.692,18.567l-4.74.669c-3.313.466-4.417,1.735-4.207,4.144l-.546.077L7.125,15.823l.545-.077c.564,2.487,1.88,3.328,5.193,2.862l4.74-.668L15.417,2.421a13.18,13.18,0,0,0-5.325-.148A11.486,11.486,0,0,0,3.66,4.888,11.629,11.629,0,0,0,.628,11.305Z" transform="translate(259.06 447.043)"/><path class="a" d="M8.929,0l.026.551c-1.644.2-2.393,1.386-2.29,3.543L7.737,26.731c.12,2.5,1.085,3.171,2.614,3.225l.024.508-8.929.423-.024-.508c1.56-.2,2.414-.961,2.3-3.458L2.641,4.242C2.54,2.127,1.684,1.023.027.974L0,.425Z" transform="translate(246.063 450.173)"/><path class="a" d="M8.252,31.146,0,30.745l.026-.507c1.906.05,3.358-1.024,4.313-3.225,2.257-5.448,3.7-8.855,4.23-10.271,2.616-6.7,4.079-10.617,4.346-11.75a8,8,0,0,0,.245-1.557,9.375,9.375,0,0,0-.074-1.955A11.073,11.073,0,0,0,16.677,0l6.547,24.113.685,2.493a13.452,13.452,0,0,0,.661,2.11,7.243,7.243,0,0,0,.9,1.57,3.756,3.756,0,0,0,2.186,1.293l-.024.507L17.6,31.6l.024-.508c1.068-.161,2.057-.453,2.3-1.967a11.054,11.054,0,0,0-.6-4.228L13.735,4.693c-.271,1.216-1.741,5.3-4.41,12.213l-.632,1.667-.672,1.62c-.336.79-.873,2.248-1.118,2.915-.784,2.167-1.38,3.962-1.293,4.814-.035,1.567.853,2.5,2.667,2.717Z" transform="translate(214.503 449.42)"/><path class="a" d="M1.888,8.473,6.041,0A13.1,13.1,0,0,0,11.2,1.723l14.807,2.6-.1.542c-1.4-.116-2.617.7-2.976,2.746L18.977,30.175c-.351,2,.251,3.227,1.849,3.678l-.088.5L6.806,31.908c-2.628-.46-4.564-.457-5.765.021L0,23.4l.625.11c.543,2.546,1,3.832,2.42,5.327s3.746,2.419,7.458,3.071l3.921.687L16.5,20.754l-4.714-.827c-3.295-.578-4.738.287-5.28,2.643l-.542-.1L7.3,14.883l.542.1c-.23,2.54.762,3.744,4.057,4.324l4.714.826L19.319,4.7A13.162,13.162,0,0,0,14.3,2.911a11.493,11.493,0,0,0-6.924.505A11.621,11.621,0,0,0,2.514,8.582Z" transform="translate(188.791 445.055)"/><path class="a" d="M7.794,5.292a3.976,3.976,0,0,1-5.06,2.469,3.982,3.982,0,1,1,5.06-2.469Z" transform="translate(166.158 447.982)"/><path class="a" d="M27.527,9.465a17.613,17.613,0,0,1-1.837,11.753,16.742,16.742,0,0,1-8.423,8.168,11.453,11.453,0,0,1-10.211-.008A10.785,10.785,0,0,1,3.4,26.1,3.115,3.115,0,0,0,0,24.938L3.443,13.669l.566.289Q1.4,25.817,7.4,28.888a7.773,7.773,0,0,0,7.333-.219c2.6-1.291,4.778-3.7,6.6-7.289A20.184,20.184,0,0,0,23.5,11.506a9.857,9.857,0,0,0-5.478-8.485C15,1.488,11.246,1.956,7.985,5.287l-.319-.3A13.4,13.4,0,0,1,14,.458a8.986,8.986,0,0,1,7.024.575A11.786,11.786,0,0,1,27.527,9.465Z" transform="translate(123.414 425.783)"/><path class="a" d="M12.941,5.8c.076-3.219-.446-4.492-1.687-5.38L11.537,0l3.127,2.109c1.44.97,2.16,2.632,2.1,4.992L16.5,20.462l2.319,1.564,5.659-8.4c1.3-1.932,1.076-3.414.023-4.277l.284-.423L32.16,13.9l-.283.422c-1.2-.654-2.69-.331-3.992,1.6L15.356,34.512c-1.231,1.827-1.2,3.225.061,4.229l-.307.457L6.15,33.159A14.035,14.035,0,0,1,.542,26.621a7.233,7.233,0,0,1,.835-7,6.73,6.73,0,0,1,5.481-3.2,11.132,11.132,0,0,1,6.794,2.125l1.475.994.189-.28-2.467-2.175ZM10.031,35.059l8.289-12.3C16.3,21.143,15,20.114,14.4,19.71c-3.794-2.557-7.184-1.469-9.647,2.184a7.529,7.529,0,0,0-1.23,6.068A9.056,9.056,0,0,0,7.64,33.448Z" transform="translate(100.712 407.449)"/><path class="a" d="M12.8,5.125,20.724,0A13.1,13.1,0,0,0,24.26,4.13l11.357,9.852-.36.414c-1.139-.82-2.6-.744-3.964.823L16.281,32.529c-1.331,1.534-1.445,2.894-.309,4.1l-.333.383L4.953,27.75C2.938,26,1.277,25.008,0,24.8l3.5-7.842.48.416c-.846,2.461-1.11,3.8-.667,5.811s1.965,4,4.812,6.474l3.007,2.608,7.88-9.086-3.616-3.136c-2.526-2.19-4.207-2.192-5.885-.452l-.418-.36,5.051-5.823.416.36c-1.505,2.059-1.275,3.6,1.253,5.8L19.425,22.7,29.69,10.859a13.143,13.143,0,0,0-3.384-4.112,11.481,11.481,0,0,0-6.2-3.133,11.618,11.618,0,0,0-6.827,1.927Z" transform="translate(75.824 392.656)"/><path class="a" d="M12.491,8.744l.622-1.017a8.93,8.93,0,0,1,.563-1.021l.526-.871a16.36,16.36,0,0,0,.747-1.7,5.2,5.2,0,0,0,.321-1.543A3.232,3.232,0,0,0,14.636.369L15.046,0l6.69,7.427-.41.369c-.838-.616-1.8-1.176-2.986-.217a10.689,10.689,0,0,0-2.576,3.4l-1.982,3.5L20.7,22.155c3.959-1.743,6.24-2.942,6.9-3.6a2.518,2.518,0,0,0,.017-3.777l.408-.368,5.529,6.135-.41.369c-1.278-1.357-2.787-1.764-5.354-.819-4.9,1.962-8.3,3.375-10.236,4.2l-3.132,1.4-2.7,1.179-2.057.942a26.4,26.4,0,0,0-3.015,1.463,6.444,6.444,0,0,0-1.768,1.136,8.609,8.609,0,0,0-1.306,1.461A14.247,14.247,0,0,0,0,30.373Zm7.593,13.679L13.452,15.06,5.369,29.182c1.209-.746,5.11-2.552,11.77-5.473Z" transform="translate(60.73 371.438)"/><path class="a" d="M6.644,6.383l.346.48a13.154,13.154,0,0,0-3.136,5.287c-.647,1.926-.035,3.938,1.649,6.275l.741,1.032L27.315,4.286c1.891-1.36,2.038-2.823,1.374-3.964L29.137,0l5.221,7.252-.413.3c-.87-.992-2.339-1.291-4.228.069L8.646,22.791l.767,1.065c1.682,2.337,3.431,3.532,5.42,3.614s3.454-.35,5.991-1.392l.372.514-8.823,4.056a12.5,12.5,0,0,0-2.243-4.856L3.894,17.131A11.457,11.457,0,0,0,0,13.463Z" transform="translate(38.483 359.777)"/><path class="a" d="M18.8,2.083,28,0a13.093,13.093,0,0,0,1.9,5.1l7.269,13.16-.483.266c-.787-1.162-2.188-1.6-4-.594L12.621,29.007c-1.779.982-2.354,2.219-1.7,3.747L10.473,33,3.634,20.618C2.345,18.282,1.126,16.777,0,16.142l5.985-6.16.307.557c-1.641,2.02-2.352,3.186-2.629,5.225S4.128,20.2,5.951,23.5l1.924,3.486L18.4,21.169,16.09,16.978c-1.617-2.927-3.2-3.508-5.37-2.452l-.266-.481L17.2,10.317l.266.481c-2.121,1.414-2.439,2.945-.82,5.873l2.313,4.191,13.717-7.576a13.168,13.168,0,0,0-1.759-5.027,11.491,11.491,0,0,0-4.74-5.075A11.615,11.615,0,0,0,19.1,2.638Z" transform="translate(24.97 333.593)"/><path class="a" d="M5.35,7.76a3.978,3.978,0,0,1-5.1-2.393,3.981,3.981,0,0,1,7.46-2.782A3.993,3.993,0,0,1,5.35,7.76Z" transform="translate(28.122 314.704)"/><path class="a" d="M29.317,18.29a17.615,17.615,0,0,1-10.311,5.936A16.732,16.732,0,0,1,7.358,22.782,11.445,11.445,0,0,1,.964,14.818a10.788,10.788,0,0,1,.266-4.9A3.113,3.113,0,0,0,0,6.537L10.941,2.156l.13.622q-10.876,5.4-9.51,12a7.77,7.77,0,0,0,4.767,5.576c2.638,1.221,5.882,1.4,9.82.575a20.2,20.2,0,0,0,9.053-4.5,9.864,9.864,0,0,0,3.178-9.588C27.68,3.524,24.961.893,20.32.44L20.358,0a13.41,13.41,0,0,1,7.5,2.1,8.989,8.989,0,0,1,3.956,5.835A11.789,11.789,0,0,1,29.317,18.29Z" transform="translate(3.761 274.943)"/><path class="a" d="M27.664,21.683a17.407,17.407,0,0,1-10.979,4.609A17.286,17.286,0,0,1,5.34,23.581,11.317,11.317,0,0,1,.048,14.7,11.91,11.91,0,0,1,3.8,4.669,16.855,16.855,0,0,1,14.607.073a17.757,17.757,0,0,1,11.516,2.7,10.956,10.956,0,0,1,5.36,8.665A12.092,12.092,0,0,1,27.664,21.683ZM10.447,5.459A18.545,18.545,0,0,0,3.615,9.866a7.7,7.7,0,0,0-2.528,6.15A6.309,6.309,0,0,0,4.7,21.422a14.643,14.643,0,0,0,7.968,1.365,29.624,29.624,0,0,0,8.385-1.939,20.052,20.052,0,0,0,6.867-4.5,7.929,7.929,0,0,0,2.522-6.233A6.013,6.013,0,0,0,26.8,4.884a14.946,14.946,0,0,0-8.05-1.316A30.038,30.038,0,0,0,10.447,5.459Z" transform="translate(0.545 245.967)"/><path class="a" d="M.93,7.912,1.322,0l.508.026C1.855,2.1,3.021,3.393,6.277,3.6L25.986,4.746a8.821,8.821,0,0,0,4.672-.956A10.18,10.18,0,0,0,32.736,7.2L4.538,22.386l20.91.868c3.175.115,4.652-1.422,4.929-3.572l.507.024-.43,8.675-.508-.026c-.061-2.209-1.374-3.929-4.546-4.127L5.649,23.078c-3.171-.2-4.9,1.2-5.142,3.6L0,26.657l.33-6.644L27.349,5.491,6.234,4.443c-2.921-.1-4.505,1.05-4.8,3.495Z" transform="translate(0 215.332)"/><path class="a" d="M3.437,7.788,4.886,0l.5.094c-.256,2.063.726,3.5,3.926,4.135L28.688,8.01a8.826,8.826,0,0,0,4.756-.321,10.146,10.146,0,0,0,1.6,3.658L5.069,22.614l20.6,3.664c3.132.54,4.8-.787,5.363-2.879l.5.094-1.59,8.535-.5-.092c.236-2.2-.835-4.077-3.951-4.7L6.078,23.447c-3.116-.623-5.012.531-5.579,2.882L0,26.235,1.218,19.7,29.937,8.933,9.157,5.062C6.277,4.569,4.552,5.5,3.936,7.88Z" transform="translate(2.032 183.474)"/><path class="a" d="M28.243,4.083l7.818,5.286a13.117,13.117,0,0,0-2.419,4.871L29.02,28.549l-.525-.17c.309-1.371-.333-2.69-2.309-3.328l-21.8-7.042c-1.933-.625-3.23-.2-3.9,1.321L0,19.175,4.349,5.712C5.169,3.174,5.433,1.256,5.127,0l8.587.148-.2.6c-2.6.185-3.935.466-5.611,1.659S4.992,5.787,3.833,9.374L2.61,13.163l11.446,3.7,1.472-4.552c1.029-3.186.372-4.732-1.886-5.6l.169-.523,7.334,2.369-.168.525c-2.484-.581-3.815.236-4.844,3.42l-1.472,4.554,14.913,4.817a13.172,13.172,0,0,0,2.46-4.724,11.462,11.462,0,0,0,.458-6.929,11.619,11.619,0,0,0-4.445-5.531Z" transform="translate(8.541 158.605)"/><path class="a" d="M21.672,26.946a17.614,17.614,0,0,1-11.81-1.407,16.737,16.737,0,0,1-8.467-8.122A11.455,11.455,0,0,1,1.03,7.211a10.82,10.82,0,0,1,3.147-3.77A3.113,3.113,0,0,0,5.211,0L16.595,3.032l-.266.578Q4.381,1.438,1.533,7.538a7.766,7.766,0,0,0,.484,7.319C3.4,17.414,5.89,19.5,9.541,21.19a20.2,20.2,0,0,0,9.947,1.8,9.858,9.858,0,0,0,8.278-5.782c1.425-3.074.82-6.809-2.629-9.945l.293-.331A13.393,13.393,0,0,1,30.181,13.1a8.984,8.984,0,0,1-.319,7.039A11.78,11.78,0,0,1,21.672,26.946Z" transform="translate(21.446 131.811)"/><path class="a" d="M20.246,3.437l-.313.5a13.159,13.159,0,0,0-6.083-.88c-2.03.139-3.655,1.474-5.174,3.923l-.669,1.08L30.082,21.747c1.98,1.228,3.389.8,4.189-.244l.467.289-4.709,7.6-.433-.268c.584-1.183.3-2.655-1.681-3.882L5.843,11.558,5.15,12.673C3.632,15.122,3.2,17.193,3.88,19.065s1.641,3.06,3.575,5.007l-.334.54L0,18a12.486,12.486,0,0,0,3.632-3.929L9.258,5a11.492,11.492,0,0,0,1.9-5Z" transform="translate(29.783 105.269)"/><path class="a" d="M1.379,7.037A3.979,3.979,0,0,1,.968,1.42a3.981,3.981,0,1,1,.411,5.617Z" transform="translate(66.535 93.845)"/></g></g><g class="b" transform="translate(238.364 238.939)"><path class="d" d="M95.711,23.058a5,5,0,0,1,9.782,0l12.04,56.759a5,5,0,0,0,3.854,3.854l56.759,12.04a5,5,0,0,1,0,9.782l-56.759,12.04a5,5,0,0,0-3.854,3.854l-12.04,56.759a5,5,0,0,1-9.782,0l-12.04-56.759a5,5,0,0,0-3.854-3.854l-56.759-12.04a5,5,0,0,1,0-9.782l56.759-12.04a5,5,0,0,0,3.854-3.854Z"/><path class="e" d="M 100.6019668579102 20.09590148925781 C 99.10709381103516 20.09590148925781 97.18533325195312 20.92611694335938 96.68903350830078 23.26588439941406 L 84.64926910400391 80.02485656738281 C 84.15766143798828 82.34244537353516 82.34249114990234 84.15761566162109 80.02487945556641 84.64924621582031 L 23.26588439941406 96.68903350830078 C 20.92611694335938 97.18533325195312 20.09590148925781 99.10709381103516 20.09590148925781 100.6019668579102 C 20.09590148925781 102.0968399047852 20.92611694335938 104.0186004638672 23.26588439941406 104.5149002075195 L 80.02485656738281 116.5546875 C 82.34244537353516 117.0462951660156 84.15761566162109 118.8614654541016 84.64924621582031 121.1790771484375 L 96.68903350830078 177.9380798339844 C 97.18533325195312 180.27783203125 99.10709381103516 181.1080322265625 100.6019668579102 181.1080322265625 C 102.0968399047852 181.1080322265625 104.0186004638672 180.27783203125 104.5149002075195 177.9380798339844 L 116.5546875 121.1790771484375 C 117.0463180541992 118.8614883422852 118.8614883422852 117.0463180541992 121.1790771484375 116.5546875 L 177.9380798339844 104.5149002075195 C 180.27783203125 104.0186004638672 181.1080322265625 102.0968399047852 181.1080322265625 100.6019668579102 C 181.1080322265625 99.10709381103516 180.27783203125 97.18533325195312 177.9380798339844 96.68903350830078 L 121.1790771484375 84.64924621582031 C 118.8614654541016 84.15761566162109 117.0462951660156 82.34244537353516 116.5546875 80.02485656738281 L 104.5149002075195 23.26588439941406 C 104.0186004638672 20.92611694335938 102.0968399047852 20.09590148925781 100.6019668579102 20.09590148925781 M 100.6019744873047 19.09590148925781 C 102.7673873901367 19.09590148925781 104.9327926635742 20.41673278808594 105.4931411743164 23.05838012695312 L 117.5329208374023 79.81735992431641 C 117.9430084228516 81.75061798095703 119.4533386230469 83.26092529296875 121.3865737915039 83.67101287841797 L 178.1455688476562 95.71079254150391 C 183.4288635253906 96.83148956298828 183.4288635253906 104.372444152832 178.1455688476562 105.4931411743164 L 121.3865737915039 117.5329208374023 C 119.4533386230469 117.9430084228516 117.9430084228516 119.4533386230469 117.5329208374023 121.3865737915039 L 105.4931411743164 178.1455688476562 C 104.9327926635742 180.7872161865234 102.7673797607422 182.1080322265625 100.6019668579102 182.1080322265625 C 98.43655395507812 182.1080322265625 96.27114105224609 180.7872161865234 95.71079254150391 178.1455688476562 L 83.67101287841797 121.3865737915039 C 83.26092529296875 119.4533386230469 81.75061798095703 117.9430084228516 79.81735992431641 117.5329208374023 L 23.05838012695312 105.4931411743164 C 17.77507019042969 104.372444152832 17.77507019042969 96.83148956298828 23.05838012695312 95.71079254150391 L 79.8173828125 83.67101287841797 C 81.75061798095703 83.26092529296875 83.26094818115234 81.75061798095703 83.67103576660156 79.81735992431641 L 95.71079254150391 23.05838012695312 C 96.27114868164062 20.41673278808594 98.43656158447266 19.09590148925781 100.6019744873047 19.09590148925781 Z"/></g></g><g transform="translate(1333.904 720.304)"><g transform="translate(0)"><g transform="translate(0 0)"><path class="c" d="M432.063,1406.141a17.606,17.606,0,0,1-9.2-7.534,16.737,16.737,0,0,1-2.778-11.4,11.453,11.453,0,0,1,5.177-8.8,10.785,10.785,0,0,1,4.681-1.489,3.115,3.115,0,0,0,2.722-2.349l7.974,8.677-.536.342q-8.909-8.251-14.591-4.635a7.771,7.771,0,0,0-3.525,6.434c-.206,2.9.773,5.994,2.944,9.383a20.182,20.182,0,0,0,7.419,6.866,9.858,9.858,0,0,0,10.089-.428c2.853-1.827,4.349-5.3,3.127-9.8l.425-.121a13.417,13.417,0,0,1,.694,7.755,9,9,0,0,1-4.054,5.768A11.782,11.782,0,0,1,432.063,1406.141Z" transform="translate(-313.342 -1341.368)"/><path class="c" d="M462.614,1382.46l2.129,9.988a12.448,12.448,0,0,0-4.847,1.464l-13.407,6.523-.242-.495c1.163-.707,1.746-2.027.708-4.16l-9.842-20.225c-.982-2.018-2.207-2.694-3.747-2.086l-.222-.456,8.036-3.912.222.457c-1.392.818-1.614,2.2-.632,4.218l10.936,22.473a13.661,13.661,0,0,0,4.98-1.482q3.826-1.863,5.1-4.321c.85-1.64.917-4.215.253-7.708Z" transform="translate(-306.577 -1344.171)"/><path class="c" d="M460.064,1389.655a18.965,18.965,0,0,1-7.313-21.182,11.322,11.322,0,0,1,7.319-7.31,11.917,11.917,0,0,1,10.641,1.179,16.857,16.857,0,0,1,7.106,9.355,17.749,17.749,0,0,1,.207,11.827,10.959,10.959,0,0,1-7.089,7.324A12.1,12.1,0,0,1,460.064,1389.655Zm11.511-20.673a18.533,18.533,0,0,0-5.948-5.543,7.706,7.706,0,0,0-6.582-.946,6.313,6.313,0,0,0-4.357,4.831,14.658,14.658,0,0,0,.631,8.062,29.624,29.624,0,0,0,3.936,7.656,20.067,20.067,0,0,0,6.042,5.556,7.934,7.934,0,0,0,6.662.917,6.011,6.011,0,0,0,4.183-4.815,14.96,14.96,0,0,0-.7-8.128A30.035,30.035,0,0,0,471.575,1368.983Z" transform="translate(-297.005 -1348.62)"/><path class="c" d="M475.635,1376.865l-2.827-14.426c-.433-2.2-1.734-2.9-3.254-2.729l-.1-.5,9.271-1.817.1.5c-1.431.41-2.374,1.544-1.95,3.7l2.835,14.469c1.507,7.691,5.027,10.886,10.016,9.91,4.448-.873,6.865-5.277,5.366-12.924l-2.731-13.712a3.634,3.634,0,0,0-4.392-3.24l-.1-.5,8.148-1.6.1.5c-1.929.508-3.122,1.907-2.635,4.618l2.4,13.776c1.407,8.056-1.038,12.982-6.859,14.122C482.079,1388.38,477.24,1385.055,475.635,1376.865Z" transform="translate(-287.956 -1351.914)"/><path class="c" d="M500.882,1353.238a13.874,13.874,0,0,1,10.588,3.8,14.374,14.374,0,0,1,5,10.169,17.415,17.415,0,0,1-2.867,11.21,11.046,11.046,0,0,1-8.888,5.136l-12.426.773-.032-.509c1.3-.207,2.374-1.419,2.236-3.617l-1.4-22.443c-.138-2.2-1.012-3.291-2.669-3.315l-.033-.549Zm11.438,16.769a28.162,28.162,0,0,0-2.1-9.968,9.5,9.5,0,0,0-7.452-5.858,26.413,26.413,0,0,0-5.815-.062l1.767,28.4a23.481,23.481,0,0,0,5.88.4C510.048,1382.58,512.8,1377.783,512.321,1370.007Z" transform="translate(-277.215 -1352.322)"/><path class="c" d="M529.968,1353.859l7.9.522-.035.507c-2.079-.009-3.386,1.135-3.643,4.387l-1.47,19.685a8.813,8.813,0,0,0,.879,4.685,10.141,10.141,0,0,0-3.445,2.022l-14.718-28.438-1.212,20.89c-.166,3.172,1.346,4.673,3.492,4.985l-.033.507-8.665-.572.033-.507c2.209-.024,3.95-1.312,4.2-4.477l1.473-19.727c.253-3.168-1.118-4.915-3.519-5.2l.033-.507,6.635.439,14.077,27.25,1.395-21.092c.15-2.918-.976-4.522-3.416-4.853Z" transform="translate(-267.666 -1352.622)"/><path class="c" d="M528.582,1384.612l.091-.543c1.649.145,2.631-.85,2.988-2.98l3.729-22.353c.411-2.464-.389-3.33-1.873-3.706l.083-.5,8.817,1.472-.085.5c-1.566-.133-2.561.431-2.973,2.9l-3.737,22.394c-.349,2.089.257,3.351,1.865,3.747l-.091.543Z" transform="translate(-257.635 -1351.645)"/><path class="c" d="M562.917,1361.1l7.641,2.085-.135.49c-2.036-.424-3.545.439-4.443,3.573l-5.358,18.995a8.811,8.811,0,0,0-.073,4.765,10.212,10.212,0,0,0-3.778,1.3l-8.762-30.795-5.345,20.228c-.794,3.077.39,4.849,2.43,5.581l-.133.49-8.376-2.286.133-.49c2.169.418,4.132-.5,5.007-3.549l5.371-19.037c.877-3.053-.118-5.037-2.413-5.8l.133-.49,6.416,1.75,8.367,29.5,5.564-20.387c.729-2.83-.056-4.626-2.381-5.436Z" transform="translate(-253.531 -1350.809)"/><path class="c" d="M579.419,1391.558l-5.908,7.358a13.144,13.144,0,0,0-4.658-2.811l-13.88-5.776.21-.508c1.34.421,2.708-.112,3.505-2.029l8.8-21.155c.781-1.876.461-3.2-1-3.994l.2-.469,13.06,5.435c2.463,1.024,4.354,1.445,5.631,1.242l-.85,8.546-.585-.244c.027-2.6-.142-3.959-1.2-5.728s-3.125-3.181-6.6-4.631l-3.676-1.528-4.622,11.106,4.419,1.836c3.089,1.287,4.685.758,5.73-1.422l.508.212-2.962,7.118-.508-.212c.781-2.428.077-3.821-3.013-5.109l-4.417-1.838-6.022,14.468a13.179,13.179,0,0,0,4.508,2.84,11.484,11.484,0,0,0,6.868,1.022,11.612,11.612,0,0,0,5.876-3.977Z" transform="translate(-244.102 -1347.723)"/><path class="c" d="M582.088,1384.833a4,4,0,1,1,1.372,5.522A3.975,3.975,0,0,1,582.088,1384.833Z" transform="translate(-230.498 -1337.073)"/><path class="c" d="M594.125,1405.074A17.614,17.614,0,0,1,598.475,1394a16.733,16.733,0,0,1,10-6.138,11.451,11.451,0,0,1,9.963,2.227,10.8,10.8,0,0,1,2.853,4,3.116,3.116,0,0,0,3.068,1.871l-5.811,10.249-.492-.4q5.124-11.013-.06-15.31a7.767,7.767,0,0,0-7.2-1.383c-2.823.694-5.47,2.573-8.029,5.679a20.192,20.192,0,0,0-4.262,9.166,9.856,9.856,0,0,0,3.5,9.472c2.616,2.156,6.381,2.514,10.287-.029l.247.369a13.411,13.411,0,0,1-7.169,3.036,8.988,8.988,0,0,1-6.732-2.088A11.785,11.785,0,0,1,594.125,1405.074Z" transform="translate(-224.024 -1334.698)"/><path class="c" d="M625.843,1427.752l-8.854,5.092a12.424,12.424,0,0,0-2.88-4.163l-10.328-10.758.4-.383c1.03.891,2.466,1.039,4.177-.6l16.229-15.579c1.62-1.555,1.886-2.929.834-4.208l.368-.351,6.19,6.449-.366.351c-1.207-1.073-2.59-.861-4.209.693l-18.033,17.31a13.616,13.616,0,0,0,2.939,4.286q2.948,3.073,5.681,3.531c1.821.307,4.293-.42,7.414-2.125Z" transform="translate(-219.073 -1329.968)"/><path class="c" d="M618.2,1426.8a18.964,18.964,0,0,1,17.886-13.5,11.317,11.317,0,0,1,9.213,4.7,11.911,11.911,0,0,1,2.165,10.485,16.855,16.855,0,0,1-6.7,9.648,17.787,17.787,0,0,1-11.184,3.85,10.96,10.96,0,0,1-9.154-4.483A12.086,12.086,0,0,1,618.2,1426.8Zm23.216,4.56a18.514,18.514,0,0,0,3.434-7.369,7.708,7.708,0,0,0-1.133-6.552,6.31,6.31,0,0,0-5.939-2.65,14.657,14.657,0,0,0-7.473,3.089,29.578,29.578,0,0,0-6.065,6.109,20.062,20.062,0,0,0-3.417,7.463,7.935,7.935,0,0,0,1.184,6.62,6.008,6.008,0,0,0,5.873,2.489,14.947,14.947,0,0,0,7.514-3.172A29.99,29.99,0,0,0,641.416,1431.358Z" transform="translate(-211.893 -1321.509)"/><path class="c" d="M635.66,1438.281l12.841-7.153c1.961-1.094,2.218-2.546,1.587-3.941l.445-.247,4.6,8.252-.443.248c-.833-1.235-2.2-1.779-4.127-.708l-12.879,7.174c-6.844,3.812-8.794,8.148-6.321,12.588,2.206,3.959,7.139,4.9,13.948,1.1l12.19-6.84a3.634,3.634,0,0,0,1.722-5.178l.445-.247,4.041,7.253-.445.246c-1.08-1.676-2.779-2.378-5.206-1.076L645.7,1456.3c-7.224,3.83-12.664,3.03-15.55-2.15C626.708,1447.972,628.372,1442.341,635.66,1438.281Z" transform="translate(-206.433 -1314.51)"/><path class="c" d="M666.611,1455.477a13.881,13.881,0,0,1-.346,11.246,14.37,14.37,0,0,1-8.133,7.9,17.429,17.429,0,0,1-11.55.731,11.056,11.056,0,0,1-7.626-6.874l-4.567-11.583.472-.186c.6,1.174,2.083,1.818,4.133,1.01l20.924-8.249c2.048-.808,2.817-1.976,2.33-3.56l.513-.2Zm-12.428,16.054a28.2,28.2,0,0,0,8.835-5.075,9.5,9.5,0,0,0,3.277-8.9,26.578,26.578,0,0,0-1.735-5.554l-26.479,10.438a23.579,23.579,0,0,0,1.434,5.719C641.519,1473.247,646.932,1474.391,654.183,1471.531Z" transform="translate(-203.377 -1304.887)"/><path class="c" d="M674.927,1482.694l1.926,7.685-.493.123c-.628-1.983-2.118-2.876-5.292-2.124l-19.188,4.634a8.82,8.82,0,0,0-4.19,2.272,10.185,10.185,0,0,0-2.98-2.659l22.559-22.727-20.256,5.251c-3.071.813-4.036,2.714-3.676,4.85l-.493.124-2.11-8.423.493-.122c.7,2.1,2.457,3.358,5.549,2.626L666,1469.56c3.091-.732,4.333-2.571,3.87-4.944l.493-.124,1.616,6.451-21.624,21.751,20.5-5.137c2.826-.752,4.006-2.315,3.573-4.74Z" transform="translate(-200.124 -1295.254)"/><path class="c" d="M645.113,1489.892l.546-.079c.363,1.615,1.613,2.246,3.75,1.935l22.427-3.272c2.473-.36,3.05-1.387,2.956-2.915l.5-.074,1.292,8.845-.5.074c-.351-1.532-1.192-2.31-3.666-1.947l-22.47,3.278c-2.1.306-3.112,1.268-3,2.92l-.545.08Z" transform="translate(-197.877 -1284.487)"/><path class="c" d="M677.873,1514.353l.359,7.913-.508.023c-.221-2.068-1.5-3.239-4.764-3.135l-19.724.723a8.832,8.832,0,0,0-4.558,1.393,10.185,10.185,0,0,0-2.392-3.2l26.627-17.783-20.895,1.115c-3.171.188-4.495,1.858-4.567,4.024l-.507.021-.393-8.673.507-.024c.269,2.193,1.741,3.781,4.915,3.679l19.768-.726c3.175-.1,4.759-1.656,4.777-4.074l.507-.024.3,6.644-25.517,17.013,21.114-.956c2.917-.176,4.384-1.47,4.443-3.932Z" transform="translate(-197.276 -1279.298)"/><path class="c" d="M654.345,1539.119l-8.824-3.345a13.114,13.114,0,0,0,1.233-5.3l1.2-14.988.549.045c.015,1.4.944,2.54,3.012,2.706l22.84,1.835c2.027.163,3.189-.551,3.492-2.185l.507.041-1.135,14.1c-.213,2.659-.029,4.587.56,5.74l-8.391,1.832.05-.634c2.485-.778,3.722-1.358,5.078-2.906s2.06-3.956,2.361-7.714l.319-3.969-11.989-.964-.384,4.771c-.268,3.336.728,4.69,3.124,5.01l-.044.549-7.684-.619.044-.548c2.551-.007,3.658-1.107,3.926-4.443l.384-4.771-15.621-1.256a13.134,13.134,0,0,0-1.307,5.163,11.478,11.478,0,0,0,1.148,6.85,11.615,11.615,0,0,0,5.6,4.358Z" transform="translate(-197.668 -1269.102)"/><path class="c" d="M653.894,1542.18a4,4,0,1,1-4.826,3.015A3.976,3.976,0,0,1,653.894,1542.18Z" transform="translate(-195.902 -1255.469)"/><path class="c" d="M644.655,1558.654a17.613,17.613,0,0,1,11.874.726,16.739,16.739,0,0,1,8.924,7.623,11.453,11.453,0,0,1,.95,10.166,10.8,10.8,0,0,1-2.924,3.947,3.113,3.113,0,0,0-.835,3.5l-11.543-2.371.233-.592c8.036.988,12.9-.6,14.547-4.777a7.764,7.764,0,0,0-.9-7.28c-1.529-2.472-4.135-4.41-7.877-5.89a20.191,20.191,0,0,0-10.036-1.23,9.861,9.861,0,0,0-7.933,6.249c-1.245,3.153-.425,6.847,3.2,9.781l-.274.349a13.414,13.414,0,0,1-5.1-5.886,8.987,8.987,0,0,1-.086-7.048A11.783,11.783,0,0,1,644.655,1558.654Z" transform="translate(-202.453 -1247.331)"/><path class="c" d="M634.561,1595.179,627,1588.316a12.412,12.412,0,0,0,3.079-4.02l7.069-13.131.484.262c-.53,1.253-.232,2.666,1.858,3.79l19.807,10.665c1.977,1.063,3.366.9,4.262-.5l.448.242-4.237,7.871-.448-.24c.65-1.478.026-2.729-1.952-3.792l-22.01-11.85a13.657,13.657,0,0,0-3.175,4.114q-2.017,3.746-1.619,6.49c.268,1.827,1.72,3.956,4.3,6.4Z" transform="translate(-207.167 -1240.551)"/><path class="c" d="M631.1,1588.278a18.96,18.96,0,0,1,18.317,12.9,11.318,11.318,0,0,1-1.658,10.208,11.917,11.917,0,0,1-9.32,5.266,16.859,16.859,0,0,1-11.234-3.429,17.776,17.776,0,0,1-7.084-9.472,10.962,10.962,0,0,1,1.469-10.084A12.094,12.094,0,0,1,631.1,1588.278Zm2.755,23.5a18.556,18.556,0,0,0,8.066,1.017,7.707,7.707,0,0,0,5.889-3.083,6.31,6.31,0,0,0,.708-6.466,14.653,14.653,0,0,0-5.225-6.169,29.67,29.67,0,0,0-7.668-3.906,20.1,20.1,0,0,0-8.15-.973,7.932,7.932,0,0,0-5.939,3.151,6.012,6.012,0,0,0-.575,6.354,14.95,14.95,0,0,0,5.317,6.183A30.128,30.128,0,0,0,633.856,1611.775Z" transform="translate(-211.002 -1231.79)"/><path class="c" d="M626.731,1607.869l10.75,10.03c1.641,1.53,3.1,1.331,4.237.3l.372.346-6.446,6.909-.371-.346c.918-1.171,1.017-2.644-.595-4.146l-10.78-10.057c-5.73-5.348-10.455-5.871-13.922-2.154-3.094,3.313-2.47,8.3,3.23,13.617l10.251,9.5a3.636,3.636,0,0,0,5.458.052l.372.346-5.665,6.071-.371-.346c1.265-1.543,1.411-3.377-.573-5.284l-10.021-9.756c-5.864-5.7-6.771-11.125-2.725-15.461C614.758,1602.32,620.629,1602.176,626.731,1607.869Z" transform="translate(-217.189 -1223.914)"/><path class="c" d="M618.73,1643.511a13.888,13.888,0,0,1-10.807,3.133,14.377,14.377,0,0,1-10.018-5.307,17.435,17.435,0,0,1-4.251-10.765,11.06,11.06,0,0,1,4.192-9.374l9.617-7.913.322.392c-.933.934-1.089,2.543.31,4.245l14.293,17.367c1.4,1.7,2.747,2.073,4.1,1.121l.351.427Zm-19.1-6.882a28.182,28.182,0,0,0,7.55,6.843,9.5,9.5,0,0,0,9.473.378,26.511,26.511,0,0,0,4.75-3.358l-18.087-21.983a23.558,23.558,0,0,0-5,3.127C594.1,1625.108,594.674,1630.61,599.627,1636.629Z" transform="translate(-224.27 -1218.951)"/><path class="c" d="M596.334,1660.219l-6.712,4.2-.269-.43c1.691-1.21,2.08-2.9.386-5.69L579.4,1641.488a8.83,8.83,0,0,0-3.457-3.284,10.116,10.116,0,0,0,1.608-3.655l28.583,14.432-11.251-17.642c-1.722-2.67-3.827-3-5.749-2l-.271-.431,7.36-4.61.269.431c-1.778,1.313-2.434,3.374-.784,6.088l10.355,16.854c1.65,2.714,3.784,3.327,5.9,2.154l.271.429-5.637,3.531-27.364-13.847,11.219,17.912c1.587,2.455,3.439,3.094,5.609,1.935Z" transform="translate(-233.346 -1213.301)"/><path class="c" d="M575.229,1634.387l.244.493c-1.425.845-1.638,2.228-.681,4.165l10.053,20.316c1.109,2.24,2.263,2.472,3.687,1.909l.227.457-8.013,3.964-.225-.455c1.348-.809,1.828-1.849.719-4.089l-10.072-20.354c-.94-1.9-2.168-2.567-3.7-1.948l-.245-.493Z" transform="translate(-237.823 -1208.13)"/><path class="c" d="M565.983,1673.358l-7.416,2.785-.178-.477c1.9-.847,2.617-2.429,1.51-5.5l-6.779-18.541a8.8,8.8,0,0,0-2.734-3.9,10.167,10.167,0,0,0,2.3-3.265l25.14,19.838-7.514-19.531c-1.156-2.96-3.154-3.7-5.236-3.1l-.18-.477,8.13-3.051.18.475c-2,.933-3.059,2.821-1.982,5.812L578.022,1663c1.077,2.989,3.045,4.017,5.351,3.286l.18.477-6.227,2.337-24.063-19.021,7.429,19.789c1.067,2.721,2.753,3.717,5.112,3.013Z" transform="translate(-246.454 -1206.208)"/><path class="c" d="M533.8,1657.983l.481-9.425a13.089,13.089,0,0,0,5.42-.448l14.635-3.44.126.534c-1.33.445-2.128,1.676-1.654,3.7l5.245,22.3c.466,1.98,1.5,2.865,3.148,2.654l.115.495-13.77,3.239c-2.6.61-4.375,1.377-5.292,2.287l-4.313-7.426.619-.146c1.5,2.129,2.433,3.127,4.32,3.944s4.4.75,8.066-.112l3.874-.912-2.753-11.708-4.658,1.1c-3.257.766-4.242,2.129-3.812,4.507l-.537.127-1.764-7.5.536-.127c.788,2.427,2.175,3.144,5.432,2.378l4.658-1.1-3.587-15.254a13.164,13.164,0,0,0-5.314.334,11.489,11.489,0,0,0-6.169,3.192,11.625,11.625,0,0,0-2.436,6.664Z" transform="translate(-254.959 -1202.856)"/><path class="c" d="M526.273,1658.913a4,4,0,1,1-4.346-3.676A3.978,3.978,0,0,1,526.273,1658.913Z" transform="translate(-262.919 -1197.445)"/><path class="c" d="M511.816,1654.471a17.61,17.61,0,0,1,2.974,11.514,16.729,16.729,0,0,1-4.493,10.836,11.448,11.448,0,0,1-9.373,4.042,10.825,10.825,0,0,1-4.656-1.563,3.111,3.111,0,0,0-3.581.284l-1.309-11.706.634.041c1.542,7.944,4.552,12.078,9.033,12.357a7.771,7.771,0,0,0,6.643-3.107c1.877-2.218,2.917-5.292,3.166-9.309a20.161,20.161,0,0,0-1.927-9.921,9.855,9.855,0,0,0-8.39-5.614c-3.383-.21-6.641,1.708-8.311,6.06l-.416-.154a13.411,13.411,0,0,1,4.021-6.666,8.98,8.98,0,0,1,6.674-2.257A11.782,11.782,0,0,1,511.816,1654.471Z" transform="translate(-276.714 -1200.488)"/><path class="c" d="M474.652,1655.425l4.184-9.319a12.435,12.435,0,0,0,4.776,1.684l14.674,2.658-.1.54c-1.357-.115-2.607.605-3.03,2.939l-4.007,22.137c-.4,2.21.188,3.479,1.791,3.9l-.091.5-8.8-1.591.089-.5c1.608.162,2.6-.82,3-3.03l4.454-24.6a13.611,13.611,0,0,0-4.892-1.746q-4.191-.76-6.674.47c-1.655.818-3.23,2.859-4.758,6.071Z" transform="translate(-285.291 -1202.12)"/><path class="c" d="M480.739,1650.744a18.96,18.96,0,0,1-6.606,21.408,11.323,11.323,0,0,1-10.222,1.578,11.913,11.913,0,0,1-7.889-7.236,16.857,16.857,0,0,1-.21-11.744,17.772,17.772,0,0,1,6.818-9.664,10.956,10.956,0,0,1,10.044-1.721A12.09,12.09,0,0,1,480.739,1650.744Zm-21.494,9.883a18.514,18.514,0,0,0,1.526,7.983,7.7,7.7,0,0,0,4.753,4.649,6.3,6.3,0,0,0,6.366-1.325,14.627,14.627,0,0,0,4.253-6.874,29.646,29.646,0,0,0,1.345-8.5,20.1,20.1,0,0,0-1.594-8.05,7.939,7.939,0,0,0-4.833-4.675,6.008,6.008,0,0,0-6.219,1.417,14.934,14.934,0,0,0-4.236,6.968A30.065,30.065,0,0,0,459.245,1660.627Z" transform="translate(-295.44 -1203.805)"/><path class="c" d="M462.7,1652.8l-6.24,13.313c-.953,2.035-.313,3.363,1.014,4.127l-.215.46-8.555-4.01.215-.461c1.4.514,2.829.157,3.764-1.838l6.257-13.352c3.327-7.1,2.375-11.754-2.228-13.912-4.106-1.925-8.658.2-11.966,7.26l-5.9,12.677a3.633,3.633,0,0,0,1.629,5.208l-.216.461-7.519-3.525.215-.46c1.858.731,3.647.305,4.855-2.169l6.2-12.537c3.625-7.331,8.507-9.862,13.879-7.345C464.3,1639.7,466.238,1645.242,462.7,1652.8Z" transform="translate(-306.784 -1207.43)"/><path class="c" d="M426.2,1655.464a13.886,13.886,0,0,1-6.295-9.325,14.373,14.373,0,0,1,1.98-11.16,17.425,17.425,0,0,1,8.941-7.343,11.053,11.053,0,0,1,10.205,1.113l10.478,6.728-.274.427c-1.174-.6-2.753-.257-3.944,1.594l-12.146,18.927c-1.189,1.854-1.13,3.251.191,4.25l-.3.463Zm.693-20.29a28.2,28.2,0,0,0-4.2,9.284,9.5,9.5,0,0,0,2.543,9.131,26.545,26.545,0,0,0,4.655,3.49l15.372-23.951a23.638,23.638,0,0,0-4.507-3.8C436.165,1626.38,431.106,1628.616,426.9,1635.174Z" transform="translate(-313.551 -1211.982)"/><path class="c" d="M405.528,1639.354l-6.06-5.1.328-.39c1.669,1.242,3.4,1.092,5.534-1.377l12.844-14.994a8.807,8.807,0,0,0,2.067-4.3,10.164,10.164,0,0,0,3.974.412l-4.98,31.637,13.348-16.119c2.015-2.458,1.684-4.566.139-6.087l.328-.389,6.644,5.594-.328.389c-1.794-1.289-3.958-1.283-6.038,1.12l-12.871,15.025c-2.079,2.4-2.009,4.623-.244,6.277l-.327.389-5.089-4.284,4.8-30.3-13.615,16.173c-1.85,2.263-1.893,4.221-.122,5.932Z" transform="translate(-323.846 -1218.997)"/><path class="c" d="M420.816,1612.373l-.393.384c-1.244-1.1-2.625-.874-4.174.632L400.011,1629.2c-1.793,1.744-1.658,2.914-.685,4.1l-.363.355-6.234-6.405.363-.354c1.185,1.033,2.321,1.168,4.112-.575l16.27-15.837c1.517-1.477,1.776-2.852.716-4.123l.393-.384Z" transform="translate(-327.303 -1222.703)"/><path class="c" d="M383.6,1614.978l-4.935-6.2.4-.316c1.393,1.544,3.119,1.74,5.7-.257l15.553-12.163a8.826,8.826,0,0,0,2.874-3.8,10.177,10.177,0,0,0,3.815,1.187l-11.131,30.032,16.27-13.167c2.46-2.012,2.551-4.142,1.337-5.938l.4-.318,5.408,6.8-.4.316c-1.505-1.617-3.628-2.039-6.141-.094l-15.587,12.189c-2.511,1.947-2.88,4.136-1.477,6.1l-.4.318-4.142-5.206,10.683-28.756-16.541,13.165c-2.26,1.855-2.688,3.767-1.29,5.794Z" transform="translate(-334.512 -1229.745)"/><path class="c" d="M387.383,1580.1l9.113-2.458a13.115,13.115,0,0,0,2.1,5.018l7.8,12.857-.47.286c-.834-1.13-2.253-1.508-4.027-.431l-19.594,11.891c-1.738,1.054-2.263,2.313-1.551,3.814l-.434.263-7.34-12.1c-1.384-2.281-2.663-3.737-3.814-4.327l5.731-6.4.328.543c-1.558,2.085-2.221,3.28-2.414,5.331s.646,4.413,2.6,7.637l2.067,3.405,10.286-6.242-2.483-4.092c-1.737-2.862-3.337-3.377-5.469-2.233l-.284-.472,6.591-4,.286.471c-2.063,1.5-2.318,3.041-.581,5.9l2.482,4.092,13.4-8.131a13.152,13.152,0,0,0-1.964-4.953,11.479,11.479,0,0,0-4.942-4.879,11.618,11.618,0,0,0-7.094-.256Z" transform="translate(-339.384 -1237.227)"/><path class="c" d="M375.918,1573.45a4,4,0,1,1,2.151-5.271A3.977,3.977,0,0,1,375.918,1573.45Z" transform="translate(-338.746 -1243.33)"/><path class="c" d="M383.084,1557.608a17.609,17.609,0,0,1-10.051,6.357,16.739,16.739,0,0,1-11.693-.96,11.445,11.445,0,0,1-6.717-7.687,10.8,10.8,0,0,1,.064-4.911,3.114,3.114,0,0,0-1.369-3.322l10.744-4.827.157.616q-10.638,5.85-9,12.379a7.767,7.767,0,0,0,4.992,5.374c2.685,1.11,5.93,1.157,9.83.168a20.191,20.191,0,0,0,8.854-4.874,9.856,9.856,0,0,0,2.776-9.706c-.835-3.284-3.659-5.8-8.313-6.059l.02-.442a13.408,13.408,0,0,1,7.576,1.79,8.983,8.983,0,0,1,4.192,5.663A11.776,11.776,0,0,1,383.084,1557.608Z" transform="translate(-347.513 -1256.687)"/><path class="c" d="M370.763,1522.613l10.148,1.133a12.441,12.441,0,0,0-.141,5.062l1.958,14.78-.546.071c-.3-1.327-1.372-2.295-3.723-1.983l-22.3,2.953c-2.225.295-3.253,1.242-3.162,2.9l-.5.066-1.174-8.859.5-.067c.337,1.579,1.576,2.225,3.8,1.932l24.774-3.282a13.642,13.642,0,0,0,.166-5.192q-.558-4.221-2.489-6.207c-1.286-1.325-3.709-2.2-7.233-2.675Z" transform="translate(-348.536 -1265.448)"/><path class="c" d="M376.615,1526.428a18.968,18.968,0,0,1-22.406.493,11.315,11.315,0,0,1-4.726-9.2,11.913,11.913,0,0,1,4.374-9.774,16.871,16.871,0,0,1,11.08-3.91,17.754,17.754,0,0,1,11.326,3.417,10.957,10.957,0,0,1,4.806,8.988A12.1,12.1,0,0,1,376.615,1526.428Zm-16.172-17.276a18.534,18.534,0,0,0-7.1,3.971,7.713,7.713,0,0,0-2.911,5.979,6.315,6.315,0,0,0,3.269,5.625,14.63,14.63,0,0,0,7.87,1.862,29.576,29.576,0,0,0,8.493-1.409,20.106,20.106,0,0,0,7.137-4.057,7.933,7.933,0,0,0,2.908-6.065,6.013,6.013,0,0,0-3.309-5.454,14.943,14.943,0,0,0-7.953-1.818A30.032,30.032,0,0,0,360.443,1509.151Z" transform="translate(-349.481 -1274.977)"/><path class="c" d="M368.705,1508.955l-14.585-1.812c-2.228-.275-3.295.746-3.608,2.244l-.505-.063,1.163-9.375.505.063c-.057,1.487.728,2.737,2.914,3.008l14.627,1.815c7.777.967,11.91-1.381,12.535-6.425.558-4.5-2.87-8.169-10.6-9.127L357.27,1487.6a3.633,3.633,0,0,0-4.446,3.162l-.505-.063,1.023-8.237.5.062c-.118,1.991.84,3.561,3.566,3.942l13.835,2.015c8.094,1.176,12.01,5.035,11.28,10.918C381.654,1506.422,376.987,1509.981,368.705,1508.955Z" transform="translate(-349.211 -1286.038)"/><path class="c" d="M355.6,1476.1a13.886,13.886,0,0,1,6.921-8.871,14.377,14.377,0,0,1,11.227-1.569,17.425,17.425,0,0,1,9.752,6.233,11.049,11.049,0,0,1,2.1,10.051l-3.156,12.046-.49-.13c.209-1.3-.608-2.7-2.738-3.256l-21.757-5.7c-2.13-.558-3.44-.07-3.982,1.5l-.532-.141Zm19.512-5.615a28.18,28.18,0,0,0-10.128-1.121,9.5,9.5,0,0,0-7.9,5.242,26.474,26.474,0,0,0-1.88,5.507l27.535,7.215a23.624,23.624,0,0,0,2.218-5.463C386.344,1476.578,382.652,1472.459,375.113,1470.485Z" transform="translate(-347.707 -1294.915)"/><path class="c" d="M365.321,1450.688l2.986-7.337.472.191c-.666,1.97.009,3.572,3.015,4.842l18.223,7.6a8.807,8.807,0,0,0,4.724.643,10.163,10.163,0,0,0,.834,3.907l-31.636,5.009,19.45,7.735c2.959,1.157,4.861.193,5.832-1.744l.472.192-3.275,8.045-.47-.192c.673-2.1,0-4.162-2.926-5.4l-18.263-7.617c-2.927-1.238-5.016-.487-6.045,1.7l-.47-.192,2.508-6.16,30.3-4.773-19.582-7.971c-2.725-1.063-4.6-.5-5.684,1.713Z" transform="translate(-344.987 -1306.095)"/><path class="c" d="M393.779,1456.9l-.487-.257c.661-1.52.027-2.767-1.882-3.778l-20.033-10.609c-2.209-1.169-3.281-.684-4.107.6l-.449-.238,4.183-7.9.451.237c-.622,1.445-.4,2.567,1.808,3.737l20.069,10.629c1.871.991,3.26.815,4.145-.585l.486.259Z" transform="translate(-340.588 -1310.518)"/><path class="c" d="M381.961,1422.767l4.389-6.6.424.281c-1.044,1.8-.7,3.5,1.991,5.346l16.341,11.081a8.831,8.831,0,0,0,4.5,1.571,10.194,10.194,0,0,0,.038,4l-32-1.4,17.518,11.455c2.669,1.726,4.724,1.161,6.063-.544l.424.281-4.812,7.23-.424-.281c1.079-1.929.831-4.077-1.791-5.874l-16.379-11.1c-2.62-1.8-4.818-1.477-6.263.463l-.422-.283,3.685-5.537,30.648,1.365-17.6-11.715c-2.457-1.584-4.407-1.407-5.911.546Z" transform="translate(-338.158 -1320.033)"/><path class="c" d="M415.668,1415.6l5.133,7.918a13.1,13.1,0,0,0-4.128,3.54l-9.842,11.364-.416-.36c.818-1.139.743-2.6-.826-3.964l-17.32-15c-1.537-1.331-2.9-1.443-4.106-.306l-.384-.333,9.26-10.694c1.747-2.017,2.738-3.679,2.947-4.956l7.847,3.49-.416.479c-2.463-.843-3.8-1.107-5.812-.663s-4,1.969-6.469,4.82l-2.607,3.009,9.092,7.873,3.133-3.619c2.191-2.529,2.189-4.21.448-5.885l.36-.417,5.827,5.045-.36.417c-2.059-1.505-3.6-1.272-5.794,1.257l-3.133,3.617,11.847,10.259a13.186,13.186,0,0,0,4.109-3.389,11.458,11.458,0,0,0,3.127-6.2,11.614,11.614,0,0,0-1.932-6.827Z" transform="translate(-331.892 -1326.882)"/><path class="c" d="M411.011,1404.092a4,4,0,1,1,5.676.427A3.979,3.979,0,0,1,411.011,1404.092Z" transform="translate(-318.409 -1329.601)"/></g></g><g class="b" transform="translate(139.876 131.615)"><path class="d" d="M95.711,23.058a5,5,0,0,1,9.782,0l12.04,56.759a5,5,0,0,0,3.854,3.854l56.759,12.04a5,5,0,0,1,0,9.782l-56.759,12.04a5,5,0,0,0-3.854,3.854l-12.04,56.759a5,5,0,0,1-9.782,0l-12.04-56.759a5,5,0,0,0-3.854-3.854l-56.759-12.04a5,5,0,0,1,0-9.782l56.759-12.04a5,5,0,0,0,3.854-3.854Z"/><path class="f" d="M 100.6019668579102 21.09587097167969 C 99.42703247070312 21.09587097167969 98.03910064697266 21.72044372558594 97.66728210449219 23.47337341308594 L 85.62751007080078 80.23239898681641 C 85.05394744873047 82.93621826171875 82.93624114990234 85.05392456054688 80.23237609863281 85.62748718261719 L 23.47337341308594 97.66728210449219 C 21.72047424316406 98.03910064697266 21.09590148925781 99.42703247070312 21.09590148925781 100.6019668579102 C 21.09587097167969 101.7769012451172 21.72044372558594 103.1648559570312 23.47337341308594 103.5366744995117 L 80.23239898681641 115.5764465332031 C 82.93621826171875 116.1500091552734 85.05392456054688 118.2677154541016 85.62748718261719 120.9715805053711 L 97.66728210449219 177.7305603027344 C 98.03910064697266 179.4834594726562 99.42703247070312 180.1080322265625 100.6019668579102 180.1080322265625 C 101.7769012451172 180.1080322265625 103.1648330688477 179.4834594726562 103.5366744995117 177.7305603027344 L 115.5764694213867 120.9715347290039 C 116.1500091552734 118.2677154541016 118.2677154541016 116.1500091552734 120.9715576171875 115.5764465332031 L 177.7305603027344 103.5366744995117 C 179.4834594726562 103.1648559570312 180.1080322265625 101.7769012451172 180.1080322265625 100.6019668579102 C 180.1080322265625 99.42703247070312 179.4834594726562 98.03910064697266 177.7305603027344 97.66728210449219 L 120.9715576171875 85.62748718261719 C 118.2677154541016 85.05392456054688 116.1500091552734 82.93621826171875 115.5764465332031 80.23237609863281 L 103.5366744995117 23.47340393066406 C 103.1648330688477 21.72044372558594 101.7769012451172 21.09587097167969 100.6019668579102 21.09587097167969 M 100.6019744873047 19.09588623046875 C 102.7673873901367 19.09588623046875 104.9327926635742 20.41671752929688 105.4931488037109 23.05838012695312 L 117.5329208374023 79.81737518310547 C 117.9430160522461 81.75062561035156 119.4533309936523 83.26091766357422 121.3865814208984 83.67101287841797 L 178.1455535888672 95.71080780029297 C 183.4288482666016 96.83148956298828 183.4288482666016 104.372444152832 178.1455535888672 105.4931488037109 L 121.3865585327148 117.5329208374023 C 119.4533309936523 117.9430160522461 117.9430160522461 119.4533309936523 117.5329208374023 121.3865585327148 L 105.4931488037109 178.1455535888672 C 104.9327926635742 180.7872009277344 102.7673797607422 182.1080322265625 100.6019668579102 182.1080322265625 C 98.43655395507812 182.1080322265625 96.27114868164062 180.7872009277344 95.71080780029297 178.1455535888672 L 83.67101287841797 121.3865814208984 C 83.26091766357422 119.4533309936523 81.75062561035156 117.9430160522461 79.81737518310547 117.5329208374023 L 23.05838012695312 105.4931488037109 C 17.77505493164062 104.372444152832 17.77505493164062 96.83148956298828 23.05838012695312 95.71080780029297 L 79.81737518310547 83.67101287841797 C 81.75062561035156 83.26091766357422 83.26094055175781 81.75062561035156 83.67103576660156 79.81737518310547 L 95.71080780029297 23.05838012695312 C 96.27115631103516 20.41671752929688 98.43656921386719 19.09588623046875 100.6019744873047 19.09588623046875 Z"/></g></g></g></svg>