<svg xmlns="http://www.w3.org/2000/svg" width="57.516" height="65.92" viewBox="0 0 57.516 65.92"><defs><style>.a{fill:#fff;}</style></defs><g transform="translate(321.783 -2253.215)"><path class="a" d="M-192.425,2271.018a17.843,17.843,0,0,1,10.048-15.711c11.4-5.744,26.608.833,27.653,13.7a19.825,19.825,0,0,1-1.054,8,30.983,30.983,0,0,1-7.88,11.778c-1.292,1.269-12.5,11.042-13.547,9.295l-4.3-7.181c-.345-.577-.35-.9.25-1.268a48.025,48.025,0,0,0,10.544-8.139c2.859-3.093,5.986-7.57,5.032-11.909a7.954,7.954,0,0,0-8.046-5.841,8.06,8.06,0,0,0-7.389,6.651,8.03,8.03,0,0,0,5.332,8.309,25.9,25.9,0,0,1,3.46,1.113,30.426,30.426,0,0,1-7.486,6.287c-2.651,1.581-4.509.673-6.542-1.32a22.283,22.283,0,0,1-4.081-5.541A17.372,17.372,0,0,1-192.425,2271.018Z" transform="translate(-119.477)"/><path class="a" d="M-309.015,2713.772a11.884,11.884,0,0,1,.033,1.85,10.375,10.375,0,0,0,.3,2.656,16.673,16.673,0,0,0,2.056,4.821,16.3,16.3,0,0,0,12.22,7.574c9.245.882,18.681-7.825,18.824-16.807h11.318c0,.687-.161,2.218-.225,2.741,0,.037-.008.071-.011.1a26.678,26.678,0,0,1-.64,3.99,28.4,28.4,0,0,1-8.035,13.921,29.13,29.13,0,0,1-20.642,7.72,29.5,29.5,0,0,1-8.375-1.45,28.3,28.3,0,0,1-14.143-10.307,26.817,26.817,0,0,1-4.363-8.827,32.41,32.41,0,0,1-.776-4.2c-.042-.341-.394-4.117-.284-4.117Z" transform="translate(0 -423.216)"/></g></svg>